<svg width="23" height="22" viewBox="0 0 23 22" fill="none" xmlns="http://www.w3.org/2000/svg">
<g filter="url(#filter0_d_5_7)">
<path d="M11.5 10.1786C10.7896 10.1786 10.1083 9.89637 9.60596 9.39404C9.10363 8.89171 8.82143 8.2104 8.82143 7.5C8.82143 6.7896 9.10363 6.10829 9.60596 5.60596C10.1083 5.10363 10.7896 4.82143 11.5 4.82143C12.2104 4.82143 12.8917 5.10363 13.394 5.60596C13.8964 6.10829 14.1786 6.7896 14.1786 7.5C14.1786 7.85175 14.1093 8.20007 13.9747 8.52504C13.8401 8.85002 13.6428 9.14531 13.394 9.39404C13.1453 9.64276 12.85 9.84007 12.525 9.97468C12.2001 10.1093 11.8518 10.1786 11.5 10.1786ZM11.5 0C9.51088 0 7.60322 0.790176 6.1967 2.1967C4.79018 3.60322 4 5.51088 4 7.5C4 13.125 11.5 21.4286 11.5 21.4286C11.5 21.4286 19 13.125 19 7.5C19 5.51088 18.2098 3.60322 16.8033 2.1967C15.3968 0.790176 13.4891 0 11.5 0Z" fill="#22C55E"/>
</g>
<defs>
<filter id="filter0_d_5_7" x="0" y="0" width="23" height="29.4286" filterUnits="userSpaceOnUse" color-interpolation-filters="sRGB">
<feFlood flood-opacity="0" result="BackgroundImageFix"/>
<feColorMatrix in="SourceAlpha" type="matrix" values="0 0 0 0 0 0 0 0 0 0 0 0 0 0 0 0 0 0 127 0" result="hardAlpha"/>
<feOffset dy="4"/>
<feGaussianBlur stdDeviation="2"/>
<feComposite in2="hardAlpha" operator="out"/>
<feColorMatrix type="matrix" values="0 0 0 0 0 0 0 0 0 0 0 0 0 0 0 0 0 0 0.25 0"/>
<feBlend mode="normal" in2="BackgroundImageFix" result="effect1_dropShadow_5_7"/>
<feBlend mode="normal" in="SourceGraphic" in2="effect1_dropShadow_5_7" result="shape"/>
</filter>
</defs>
</svg>
